<mxfile host="app.diagrams.net" modified="2024-05-17T02:48:54.965Z" agent="Mozilla/5.0 (Macintosh; Intel Mac OS X 10_15_7) AppleWebKit/537.36 (KHTML, like Gecko) Chrome/124.0.0.0 Safari/537.36" etag="aqC1rYn9qAyj_3_E-TZA" version="24.2.5" type="github">
  <diagram name="Página-1" id="eGVJilAAByaUxr_nQy4C">
    <mxGraphModel dx="2295" dy="1963" grid="1" gridSize="10" guides="1" tooltips="1" connect="1" arrows="1" fold="1" page="1" pageScale="1" pageWidth="827" pageHeight="1169" math="0" shadow="0">
      <root>
        <mxCell id="0" />
        <mxCell id="1" parent="0" />
        <mxCell id="iGb4OSP9nNuaQJQu0MHk-1" value="" style="whiteSpace=wrap;html=1;aspect=fixed;" vertex="1" parent="1">
          <mxGeometry x="80" y="80" width="720" height="720" as="geometry" />
        </mxCell>
        <mxCell id="iGb4OSP9nNuaQJQu0MHk-26" style="edgeStyle=orthogonalEdgeStyle;rounded=0;orthogonalLoop=1;jettySize=auto;html=1;entryX=1;entryY=0.5;entryDx=0;entryDy=0;" edge="1" parent="1" source="iGb4OSP9nNuaQJQu0MHk-2" target="iGb4OSP9nNuaQJQu0MHk-10">
          <mxGeometry relative="1" as="geometry" />
        </mxCell>
        <mxCell id="iGb4OSP9nNuaQJQu0MHk-27" style="edgeStyle=orthogonalEdgeStyle;rounded=0;orthogonalLoop=1;jettySize=auto;html=1;entryX=1;entryY=0.5;entryDx=0;entryDy=0;" edge="1" parent="1" source="iGb4OSP9nNuaQJQu0MHk-2" target="iGb4OSP9nNuaQJQu0MHk-11">
          <mxGeometry relative="1" as="geometry" />
        </mxCell>
        <mxCell id="iGb4OSP9nNuaQJQu0MHk-28" style="edgeStyle=orthogonalEdgeStyle;rounded=0;orthogonalLoop=1;jettySize=auto;html=1;entryX=1;entryY=0.5;entryDx=0;entryDy=0;" edge="1" parent="1" source="iGb4OSP9nNuaQJQu0MHk-2" target="iGb4OSP9nNuaQJQu0MHk-14">
          <mxGeometry relative="1" as="geometry">
            <Array as="points">
              <mxPoint x="670" y="370" />
              <mxPoint x="670" y="750" />
            </Array>
          </mxGeometry>
        </mxCell>
        <mxCell id="iGb4OSP9nNuaQJQu0MHk-31" style="edgeStyle=orthogonalEdgeStyle;rounded=0;orthogonalLoop=1;jettySize=auto;html=1;" edge="1" parent="1" source="iGb4OSP9nNuaQJQu0MHk-2" target="iGb4OSP9nNuaQJQu0MHk-16">
          <mxGeometry relative="1" as="geometry">
            <Array as="points">
              <mxPoint x="935" y="420" />
            </Array>
          </mxGeometry>
        </mxCell>
        <mxCell id="iGb4OSP9nNuaQJQu0MHk-67" style="edgeStyle=orthogonalEdgeStyle;rounded=0;orthogonalLoop=1;jettySize=auto;html=1;" edge="1" parent="1" source="iGb4OSP9nNuaQJQu0MHk-2">
          <mxGeometry relative="1" as="geometry">
            <mxPoint x="880" y="170" as="targetPoint" />
            <Array as="points">
              <mxPoint x="881" y="370" />
              <mxPoint x="881" y="170" />
            </Array>
          </mxGeometry>
        </mxCell>
        <mxCell id="iGb4OSP9nNuaQJQu0MHk-2" value="Gerente&lt;div&gt;&lt;br&gt;&lt;/div&gt;" style="shape=umlActor;verticalLabelPosition=bottom;verticalAlign=top;html=1;" vertex="1" parent="1">
          <mxGeometry x="920" y="340" width="30" height="60" as="geometry" />
        </mxCell>
        <mxCell id="iGb4OSP9nNuaQJQu0MHk-19" style="edgeStyle=orthogonalEdgeStyle;rounded=0;orthogonalLoop=1;jettySize=auto;html=1;exitX=0.25;exitY=0.1;exitDx=0;exitDy=0;exitPerimeter=0;entryX=0;entryY=0.5;entryDx=0;entryDy=0;" edge="1" parent="1" source="iGb4OSP9nNuaQJQu0MHk-3" target="iGb4OSP9nNuaQJQu0MHk-5">
          <mxGeometry relative="1" as="geometry" />
        </mxCell>
        <mxCell id="iGb4OSP9nNuaQJQu0MHk-23" style="edgeStyle=orthogonalEdgeStyle;rounded=0;orthogonalLoop=1;jettySize=auto;html=1;exitX=0.5;exitY=0.5;exitDx=0;exitDy=0;exitPerimeter=0;entryX=0;entryY=0.5;entryDx=0;entryDy=0;" edge="1" parent="1" source="iGb4OSP9nNuaQJQu0MHk-3" target="iGb4OSP9nNuaQJQu0MHk-13">
          <mxGeometry relative="1" as="geometry" />
        </mxCell>
        <mxCell id="iGb4OSP9nNuaQJQu0MHk-24" style="edgeStyle=orthogonalEdgeStyle;rounded=0;orthogonalLoop=1;jettySize=auto;html=1;exitX=1;exitY=1;exitDx=0;exitDy=0;exitPerimeter=0;entryX=0;entryY=0.5;entryDx=0;entryDy=0;" edge="1" parent="1" source="iGb4OSP9nNuaQJQu0MHk-3" target="iGb4OSP9nNuaQJQu0MHk-15">
          <mxGeometry relative="1" as="geometry" />
        </mxCell>
        <mxCell id="iGb4OSP9nNuaQJQu0MHk-3" value="Cliente" style="shape=umlActor;verticalLabelPosition=bottom;verticalAlign=top;html=1;" vertex="1" parent="1">
          <mxGeometry x="-20" y="445" width="30" height="60" as="geometry" />
        </mxCell>
        <mxCell id="iGb4OSP9nNuaQJQu0MHk-25" style="edgeStyle=orthogonalEdgeStyle;rounded=0;orthogonalLoop=1;jettySize=auto;html=1;exitX=0.5;exitY=0.5;exitDx=0;exitDy=0;exitPerimeter=0;entryX=1;entryY=0.5;entryDx=0;entryDy=0;" edge="1" parent="1" source="iGb4OSP9nNuaQJQu0MHk-4" target="iGb4OSP9nNuaQJQu0MHk-9">
          <mxGeometry relative="1" as="geometry">
            <Array as="points">
              <mxPoint x="855" y="260" />
              <mxPoint x="750" y="260" />
              <mxPoint x="750" y="270" />
            </Array>
          </mxGeometry>
        </mxCell>
        <mxCell id="iGb4OSP9nNuaQJQu0MHk-4" value="Piloto&lt;div&gt;&lt;div&gt;&lt;br&gt;&lt;/div&gt;&lt;/div&gt;" style="shape=umlActor;verticalLabelPosition=bottom;verticalAlign=top;html=1;" vertex="1" parent="1">
          <mxGeometry x="840" y="140" width="30" height="60" as="geometry" />
        </mxCell>
        <mxCell id="iGb4OSP9nNuaQJQu0MHk-5" value="UC001 Cadastrar Cliente" style="ellipse;html=1;whiteSpace=wrap;" vertex="1" parent="1">
          <mxGeometry x="398" y="170" width="104" height="60" as="geometry" />
        </mxCell>
        <mxCell id="iGb4OSP9nNuaQJQu0MHk-9" value="UC002 Cadastrar Piloto" style="ellipse;html=1;whiteSpace=wrap;" vertex="1" parent="1">
          <mxGeometry x="398" y="240" width="104" height="60" as="geometry" />
        </mxCell>
        <mxCell id="iGb4OSP9nNuaQJQu0MHk-10" value="UC003 Cadastrar Voo" style="ellipse;html=1;whiteSpace=wrap;" vertex="1" parent="1">
          <mxGeometry x="398" y="320" width="104" height="60" as="geometry" />
        </mxCell>
        <mxCell id="iGb4OSP9nNuaQJQu0MHk-11" value="UC007 Planejar Roteiro de Voo" style="ellipse;html=1;whiteSpace=wrap;" vertex="1" parent="1">
          <mxGeometry x="398" y="630" width="104" height="60" as="geometry" />
        </mxCell>
        <mxCell id="iGb4OSP9nNuaQJQu0MHk-13" value="UC006 Comprar Passagem" style="ellipse;html=1;whiteSpace=wrap;" vertex="1" parent="1">
          <mxGeometry x="398" y="550" width="104" height="60" as="geometry" />
        </mxCell>
        <mxCell id="iGb4OSP9nNuaQJQu0MHk-14" value="UC008 Associar Piloto a Voo" style="ellipse;html=1;whiteSpace=wrap;" vertex="1" parent="1">
          <mxGeometry x="398" y="720" width="104" height="60" as="geometry" />
        </mxCell>
        <mxCell id="iGb4OSP9nNuaQJQu0MHk-15" value="UC005 Consultar Voos" style="ellipse;html=1;whiteSpace=wrap;" vertex="1" parent="1">
          <mxGeometry x="398" y="470" width="104" height="60" as="geometry" />
        </mxCell>
        <mxCell id="iGb4OSP9nNuaQJQu0MHk-16" value="UC004 Gerar Relatório" style="ellipse;html=1;whiteSpace=wrap;" vertex="1" parent="1">
          <mxGeometry x="398" y="390" width="104" height="60" as="geometry" />
        </mxCell>
        <mxCell id="iGb4OSP9nNuaQJQu0MHk-33" value="" style="whiteSpace=wrap;html=1;aspect=fixed;" vertex="1" parent="1">
          <mxGeometry x="1040" y="-30" width="1020" height="1020" as="geometry" />
        </mxCell>
        <mxCell id="iGb4OSP9nNuaQJQu0MHk-34" style="edgeStyle=orthogonalEdgeStyle;rounded=0;orthogonalLoop=1;jettySize=auto;html=1;entryX=1;entryY=0.5;entryDx=0;entryDy=0;" edge="1" parent="1" source="iGb4OSP9nNuaQJQu0MHk-38" target="iGb4OSP9nNuaQJQu0MHk-47">
          <mxGeometry relative="1" as="geometry" />
        </mxCell>
        <mxCell id="iGb4OSP9nNuaQJQu0MHk-35" style="edgeStyle=orthogonalEdgeStyle;rounded=0;orthogonalLoop=1;jettySize=auto;html=1;entryX=1;entryY=0.5;entryDx=0;entryDy=0;" edge="1" parent="1" source="iGb4OSP9nNuaQJQu0MHk-38" target="iGb4OSP9nNuaQJQu0MHk-48">
          <mxGeometry relative="1" as="geometry" />
        </mxCell>
        <mxCell id="iGb4OSP9nNuaQJQu0MHk-53" style="edgeStyle=orthogonalEdgeStyle;rounded=0;orthogonalLoop=1;jettySize=auto;html=1;entryX=1;entryY=0.5;entryDx=0;entryDy=0;" edge="1" parent="1" source="iGb4OSP9nNuaQJQu0MHk-38" target="iGb4OSP9nNuaQJQu0MHk-52">
          <mxGeometry relative="1" as="geometry" />
        </mxCell>
        <mxCell id="iGb4OSP9nNuaQJQu0MHk-54" style="edgeStyle=orthogonalEdgeStyle;rounded=0;orthogonalLoop=1;jettySize=auto;html=1;entryX=1;entryY=0.5;entryDx=0;entryDy=0;" edge="1" parent="1" source="iGb4OSP9nNuaQJQu0MHk-38" target="iGb4OSP9nNuaQJQu0MHk-50">
          <mxGeometry relative="1" as="geometry" />
        </mxCell>
        <mxCell id="iGb4OSP9nNuaQJQu0MHk-65" style="edgeStyle=orthogonalEdgeStyle;rounded=0;orthogonalLoop=1;jettySize=auto;html=1;entryX=0.5;entryY=0;entryDx=0;entryDy=0;" edge="1" parent="1" source="iGb4OSP9nNuaQJQu0MHk-38" target="iGb4OSP9nNuaQJQu0MHk-46">
          <mxGeometry relative="1" as="geometry">
            <Array as="points">
              <mxPoint x="1820" y="555" />
              <mxPoint x="1820" y="220" />
              <mxPoint x="1540" y="220" />
            </Array>
          </mxGeometry>
        </mxCell>
        <mxCell id="iGb4OSP9nNuaQJQu0MHk-38" value="Gerente&lt;div&gt;&lt;br&gt;&lt;/div&gt;" style="shape=umlActor;verticalLabelPosition=bottom;verticalAlign=top;html=1;" vertex="1" parent="1">
          <mxGeometry x="1850" y="525" width="30" height="60" as="geometry" />
        </mxCell>
        <mxCell id="iGb4OSP9nNuaQJQu0MHk-39" style="edgeStyle=orthogonalEdgeStyle;rounded=0;orthogonalLoop=1;jettySize=auto;html=1;exitX=0.25;exitY=0.1;exitDx=0;exitDy=0;exitPerimeter=0;entryX=0;entryY=0.5;entryDx=0;entryDy=0;" edge="1" parent="1" source="iGb4OSP9nNuaQJQu0MHk-42" target="iGb4OSP9nNuaQJQu0MHk-45">
          <mxGeometry relative="1" as="geometry" />
        </mxCell>
        <mxCell id="iGb4OSP9nNuaQJQu0MHk-40" style="edgeStyle=orthogonalEdgeStyle;rounded=0;orthogonalLoop=1;jettySize=auto;html=1;exitX=0.5;exitY=0.5;exitDx=0;exitDy=0;exitPerimeter=0;entryX=0;entryY=0.5;entryDx=0;entryDy=0;" edge="1" parent="1" source="iGb4OSP9nNuaQJQu0MHk-42" target="iGb4OSP9nNuaQJQu0MHk-49">
          <mxGeometry relative="1" as="geometry" />
        </mxCell>
        <mxCell id="iGb4OSP9nNuaQJQu0MHk-41" style="edgeStyle=orthogonalEdgeStyle;rounded=0;orthogonalLoop=1;jettySize=auto;html=1;exitX=1;exitY=1;exitDx=0;exitDy=0;exitPerimeter=0;entryX=0;entryY=0.5;entryDx=0;entryDy=0;" edge="1" parent="1" source="iGb4OSP9nNuaQJQu0MHk-42" target="iGb4OSP9nNuaQJQu0MHk-51">
          <mxGeometry relative="1" as="geometry" />
        </mxCell>
        <mxCell id="iGb4OSP9nNuaQJQu0MHk-42" value="Cliente" style="shape=umlActor;verticalLabelPosition=bottom;verticalAlign=top;html=1;" vertex="1" parent="1">
          <mxGeometry x="1140" y="240" width="30" height="60" as="geometry" />
        </mxCell>
        <mxCell id="iGb4OSP9nNuaQJQu0MHk-56" style="edgeStyle=orthogonalEdgeStyle;rounded=0;orthogonalLoop=1;jettySize=auto;html=1;" edge="1" parent="1" source="iGb4OSP9nNuaQJQu0MHk-44" target="iGb4OSP9nNuaQJQu0MHk-46">
          <mxGeometry relative="1" as="geometry" />
        </mxCell>
        <mxCell id="iGb4OSP9nNuaQJQu0MHk-44" value="Piloto&lt;div&gt;&lt;div&gt;&lt;br&gt;&lt;/div&gt;&lt;/div&gt;" style="shape=umlActor;verticalLabelPosition=bottom;verticalAlign=top;html=1;" vertex="1" parent="1">
          <mxGeometry x="1730" y="240" width="30" height="60" as="geometry" />
        </mxCell>
        <mxCell id="iGb4OSP9nNuaQJQu0MHk-45" value="UC001 Cadastrar Cliente" style="ellipse;html=1;whiteSpace=wrap;" vertex="1" parent="1">
          <mxGeometry x="1310" y="160" width="104" height="60" as="geometry" />
        </mxCell>
        <mxCell id="iGb4OSP9nNuaQJQu0MHk-46" value="UC002 Cadastrar Piloto" style="ellipse;html=1;whiteSpace=wrap;" vertex="1" parent="1">
          <mxGeometry x="1488" y="240" width="104" height="60" as="geometry" />
        </mxCell>
        <mxCell id="iGb4OSP9nNuaQJQu0MHk-47" value="UC003 Cadastrar Voo" style="ellipse;html=1;whiteSpace=wrap;" vertex="1" parent="1">
          <mxGeometry x="1488" y="320" width="104" height="60" as="geometry" />
        </mxCell>
        <mxCell id="iGb4OSP9nNuaQJQu0MHk-48" value="UC007 Planejar Roteiro de Voo" style="ellipse;html=1;whiteSpace=wrap;" vertex="1" parent="1">
          <mxGeometry x="1488" y="580" width="104" height="60" as="geometry" />
        </mxCell>
        <mxCell id="iGb4OSP9nNuaQJQu0MHk-49" value="UC006 Comprar Passagem" style="ellipse;html=1;whiteSpace=wrap;" vertex="1" parent="1">
          <mxGeometry x="1270" y="370" width="104" height="60" as="geometry" />
        </mxCell>
        <mxCell id="iGb4OSP9nNuaQJQu0MHk-50" value="UC008&amp;nbsp;&lt;div&gt;Associar Piloto a Voo&lt;/div&gt;" style="ellipse;html=1;whiteSpace=wrap;" vertex="1" parent="1">
          <mxGeometry x="1488" y="480" width="104" height="60" as="geometry" />
        </mxCell>
        <mxCell id="iGb4OSP9nNuaQJQu0MHk-51" value="UC005 Consultar Voos" style="ellipse;html=1;whiteSpace=wrap;" vertex="1" parent="1">
          <mxGeometry x="1270" y="260" width="104" height="60" as="geometry" />
        </mxCell>
        <mxCell id="iGb4OSP9nNuaQJQu0MHk-52" value="UC004 Gerar Relatório" style="ellipse;html=1;whiteSpace=wrap;" vertex="1" parent="1">
          <mxGeometry x="1488" y="390" width="104" height="60" as="geometry" />
        </mxCell>
        <mxCell id="iGb4OSP9nNuaQJQu0MHk-58" value="Pode se cadastrar" style="text;html=1;align=center;verticalAlign=middle;whiteSpace=wrap;rounded=0;" vertex="1" parent="1">
          <mxGeometry x="1231" y="210" width="79" height="30" as="geometry" />
        </mxCell>
        <mxCell id="iGb4OSP9nNuaQJQu0MHk-59" value="Pode se Consultar seus voo&lt;span style=&quot;color: rgba(0, 0, 0, 0); font-family: monospace; font-size: 0px; text-align: start; text-wrap: nowrap;&quot;&gt;%3CmxGraphModel%3E%3Croot%3E%3CmxCell%20id%3D%220%22%2F%3E%3CmxCell%20id%3D%221%22%20parent%3D%220%22%2F%3E%3CmxCell%20id%3D%222%22%20value%3D%22Pode%20se%20cadastrar%22%20style%3D%22text%3Bhtml%3D1%3Balign%3Dcenter%3BverticalAlign%3Dmiddle%3BwhiteSpace%3Dwrap%3Brounded%3D0%3B%22%20vertex%3D%221%22%20parent%3D%221%22%3E%3CmxGeometry%20x%3D%221231%22%20y%3D%22210%22%20width%3D%2279%22%20height%3D%2230%22%20as%3D%22geometry%22%2F%3E%3C%2FmxCell%3E%3C%2Froot%3E%3C%2FmxGraphModel%3E&lt;/span&gt;" style="text;html=1;align=center;verticalAlign=middle;whiteSpace=wrap;rounded=0;" vertex="1" parent="1">
          <mxGeometry x="1220" y="300" width="79" height="30" as="geometry" />
        </mxCell>
        <mxCell id="iGb4OSP9nNuaQJQu0MHk-60" value="Pode comprar passagem" style="text;html=1;align=center;verticalAlign=middle;whiteSpace=wrap;rounded=0;" vertex="1" parent="1">
          <mxGeometry x="1210" y="415" width="79" height="30" as="geometry" />
        </mxCell>
        <mxCell id="iGb4OSP9nNuaQJQu0MHk-61" value="Pode se cadastraar&lt;span style=&quot;color: rgba(0, 0, 0, 0); font-family: monospace; font-size: 0px; text-align: start; text-wrap: nowrap;&quot;&gt;%3CmxGraphModel%3E%3Croot%3E%3CmxCell%20id%3D%220%22%2F%3E%3CmxCell%20id%3D%221%22%20parent%3D%220%22%2F%3E%3CmxCell%20id%3D%222%22%20value%3D%22Pode%20comprar%20passagem%22%20style%3D%22text%3Bhtml%3D1%3Balign%3Dcenter%3BverticalAlign%3Dmiddle%3BwhiteSpace%3Dwrap%3Brounded%3D0%3B%22%20vertex%3D%221%22%20parent%3D%221%22%3E%3CmxGeometry%20x%3D%221210%22%20y%3D%22415%22%20width%3D%2279%22%20height%3D%2230%22%20as%3D%22geometry%22%2F%3E%3C%2FmxCell%3E%3C%2Froot%3E%3C%2FmxGraphModel%3E&lt;/span&gt;" style="text;html=1;align=center;verticalAlign=middle;whiteSpace=wrap;rounded=0;" vertex="1" parent="1">
          <mxGeometry x="1600" y="275" width="79" height="30" as="geometry" />
        </mxCell>
        <mxCell id="iGb4OSP9nNuaQJQu0MHk-62" value="Pode cadastrar os voo" style="text;html=1;align=center;verticalAlign=middle;whiteSpace=wrap;rounded=0;" vertex="1" parent="1">
          <mxGeometry x="1600" y="360" width="79" height="30" as="geometry" />
        </mxCell>
        <mxCell id="iGb4OSP9nNuaQJQu0MHk-63" value="Pode gerar os ralatorios de viagens" style="text;html=1;align=center;verticalAlign=middle;whiteSpace=wrap;rounded=0;" vertex="1" parent="1">
          <mxGeometry x="1600" y="430" width="79" height="30" as="geometry" />
        </mxCell>
        <mxCell id="iGb4OSP9nNuaQJQu0MHk-64" value="Pode administrar Voo e piloto&amp;nbsp;" style="text;html=1;align=center;verticalAlign=middle;whiteSpace=wrap;rounded=0;" vertex="1" parent="1">
          <mxGeometry x="1600" y="530" width="79" height="30" as="geometry" />
        </mxCell>
        <mxCell id="iGb4OSP9nNuaQJQu0MHk-66" value="Pode Planejar voo" style="text;html=1;align=center;verticalAlign=middle;whiteSpace=wrap;rounded=0;" vertex="1" parent="1">
          <mxGeometry x="1592" y="630" width="79" height="30" as="geometry" />
        </mxCell>
      </root>
    </mxGraphModel>
  </diagram>
</mxfile>
